<mxfile host="app.diagrams.net" modified="2024-04-03T12:36:12.740Z" agent="Mozilla/5.0 (X11; Linux x86_64) AppleWebKit/537.36 (KHTML, like Gecko) Chrome/123.0.0.0 Safari/537.36" version="24.2.1" etag="Kvl_AI6rq0cJCaG0cBTB" type="github">
  <diagram name="Page-1" id="zlaM5Lz-gQ07qF0RrmsT">
    <mxGraphModel>
      <root>
        <mxCell id="0" />
        <mxCell id="1" parent="0" />
      </root>
    </mxGraphModel>
  </diagram>
</mxfile>
